<mxfile host="app.diagrams.net" agent="Mozilla/5.0 (X11; Ubuntu; Linux x86_64; rv:132.0) Gecko/20100101 Firefox/132.0" version="26.0.9">
  <diagram name="Page-1" id="5bRIWqPp8xZ-8v8zyqov">
    <mxGraphModel dx="1210" dy="714" grid="1" gridSize="10" guides="1" tooltips="1" connect="1" arrows="1" fold="1" page="0" pageScale="1" pageWidth="850" pageHeight="1100" math="0" shadow="0">
      <root>
        <mxCell id="0" />
        <mxCell id="1" parent="0" />
        <mxCell id="FgGzrAZ7h3xGlEs_a5b2-3" value="" style="edgeStyle=orthogonalEdgeStyle;rounded=0;orthogonalLoop=1;jettySize=auto;html=1;" parent="1" source="FgGzrAZ7h3xGlEs_a5b2-1" target="FgGzrAZ7h3xGlEs_a5b2-2" edge="1">
          <mxGeometry relative="1" as="geometry" />
        </mxCell>
        <mxCell id="FgGzrAZ7h3xGlEs_a5b2-1" value="start" style="ellipse;whiteSpace=wrap;html=1;" parent="1" vertex="1">
          <mxGeometry x="520" y="210" width="80" height="80" as="geometry" />
        </mxCell>
        <mxCell id="u1FyatXsR4D14z9bLsPo-2" value="" style="edgeStyle=orthogonalEdgeStyle;rounded=0;orthogonalLoop=1;jettySize=auto;html=1;" edge="1" parent="1" source="FgGzrAZ7h3xGlEs_a5b2-2" target="u1FyatXsR4D14z9bLsPo-1">
          <mxGeometry relative="1" as="geometry" />
        </mxCell>
        <mxCell id="FgGzrAZ7h3xGlEs_a5b2-2" value="read n" style="shape=parallelogram;perimeter=parallelogramPerimeter;whiteSpace=wrap;html=1;fixedSize=1;" parent="1" vertex="1">
          <mxGeometry x="500" y="380" width="120" height="60" as="geometry" />
        </mxCell>
        <mxCell id="FgGzrAZ7h3xGlEs_a5b2-7" value="" style="edgeStyle=orthogonalEdgeStyle;rounded=0;orthogonalLoop=1;jettySize=auto;html=1;" parent="1" source="FgGzrAZ7h3xGlEs_a5b2-4" target="FgGzrAZ7h3xGlEs_a5b2-6" edge="1">
          <mxGeometry relative="1" as="geometry" />
        </mxCell>
        <mxCell id="u1FyatXsR4D14z9bLsPo-28" value="False" style="edgeLabel;html=1;align=center;verticalAlign=middle;resizable=0;points=[];" vertex="1" connectable="0" parent="FgGzrAZ7h3xGlEs_a5b2-7">
          <mxGeometry x="-0.3143" y="1" relative="1" as="geometry">
            <mxPoint as="offset" />
          </mxGeometry>
        </mxCell>
        <mxCell id="FgGzrAZ7h3xGlEs_a5b2-13" value="" style="edgeStyle=orthogonalEdgeStyle;rounded=0;orthogonalLoop=1;jettySize=auto;html=1;" parent="1" source="FgGzrAZ7h3xGlEs_a5b2-4" target="FgGzrAZ7h3xGlEs_a5b2-12" edge="1">
          <mxGeometry relative="1" as="geometry" />
        </mxCell>
        <mxCell id="u1FyatXsR4D14z9bLsPo-29" value="True" style="edgeLabel;html=1;align=center;verticalAlign=middle;resizable=0;points=[];" vertex="1" connectable="0" parent="FgGzrAZ7h3xGlEs_a5b2-13">
          <mxGeometry x="-0.3333" y="2" relative="1" as="geometry">
            <mxPoint as="offset" />
          </mxGeometry>
        </mxCell>
        <mxCell id="FgGzrAZ7h3xGlEs_a5b2-4" value="&lt;div&gt;n &amp;gt; 0&lt;/div&gt;&lt;div&gt;AND&lt;/div&gt;&lt;div&gt;n % 1 == 0 &lt;br&gt;&lt;/div&gt;" style="rhombus;whiteSpace=wrap;html=1;" parent="1" vertex="1">
          <mxGeometry x="450" y="790" width="150" height="80" as="geometry" />
        </mxCell>
        <mxCell id="FgGzrAZ7h3xGlEs_a5b2-9" value="" style="edgeStyle=orthogonalEdgeStyle;rounded=0;orthogonalLoop=1;jettySize=auto;html=1;" parent="1" source="FgGzrAZ7h3xGlEs_a5b2-6" target="FgGzrAZ7h3xGlEs_a5b2-8" edge="1">
          <mxGeometry relative="1" as="geometry" />
        </mxCell>
        <mxCell id="FgGzrAZ7h3xGlEs_a5b2-6" value="write errore" style="shape=parallelogram;perimeter=parallelogramPerimeter;whiteSpace=wrap;html=1;fixedSize=1;" parent="1" vertex="1">
          <mxGeometry x="660" y="800" width="120" height="60" as="geometry" />
        </mxCell>
        <mxCell id="FgGzrAZ7h3xGlEs_a5b2-11" value="" style="edgeStyle=orthogonalEdgeStyle;rounded=0;orthogonalLoop=1;jettySize=auto;html=1;" parent="1" source="FgGzrAZ7h3xGlEs_a5b2-8" target="FgGzrAZ7h3xGlEs_a5b2-10" edge="1">
          <mxGeometry relative="1" as="geometry" />
        </mxCell>
        <mxCell id="FgGzrAZ7h3xGlEs_a5b2-8" value="" style="shape=waypoint;sketch=0;size=6;pointerEvents=1;points=[];fillColor=default;resizable=0;rotatable=0;perimeter=centerPerimeter;snapToPoint=1;" parent="1" vertex="1">
          <mxGeometry x="810" y="920" width="20" height="20" as="geometry" />
        </mxCell>
        <mxCell id="FgGzrAZ7h3xGlEs_a5b2-10" value="end" style="ellipse;whiteSpace=wrap;html=1;sketch=0;pointerEvents=1;resizable=0;" parent="1" vertex="1">
          <mxGeometry x="880" y="890" width="80" height="80" as="geometry" />
        </mxCell>
        <mxCell id="FgGzrAZ7h3xGlEs_a5b2-26" value="" style="edgeStyle=orthogonalEdgeStyle;rounded=0;orthogonalLoop=1;jettySize=auto;html=1;" parent="1" source="FgGzrAZ7h3xGlEs_a5b2-12" target="FgGzrAZ7h3xGlEs_a5b2-25" edge="1">
          <mxGeometry relative="1" as="geometry" />
        </mxCell>
        <mxCell id="u1FyatXsR4D14z9bLsPo-27" value="False" style="edgeLabel;html=1;align=center;verticalAlign=middle;resizable=0;points=[];" vertex="1" connectable="0" parent="FgGzrAZ7h3xGlEs_a5b2-26">
          <mxGeometry x="-0.0667" y="-1" relative="1" as="geometry">
            <mxPoint as="offset" />
          </mxGeometry>
        </mxCell>
        <mxCell id="u1FyatXsR4D14z9bLsPo-24" value="" style="edgeStyle=orthogonalEdgeStyle;rounded=0;orthogonalLoop=1;jettySize=auto;html=1;" edge="1" parent="1" source="FgGzrAZ7h3xGlEs_a5b2-12" target="u1FyatXsR4D14z9bLsPo-23">
          <mxGeometry relative="1" as="geometry" />
        </mxCell>
        <mxCell id="u1FyatXsR4D14z9bLsPo-26" value="True" style="edgeLabel;html=1;align=center;verticalAlign=middle;resizable=0;points=[];" vertex="1" connectable="0" parent="u1FyatXsR4D14z9bLsPo-24">
          <mxGeometry x="-0.35" y="3" relative="1" as="geometry">
            <mxPoint as="offset" />
          </mxGeometry>
        </mxCell>
        <mxCell id="FgGzrAZ7h3xGlEs_a5b2-12" value="counter &amp;lt; 10" style="rhombus;whiteSpace=wrap;html=1;" parent="1" vertex="1">
          <mxGeometry x="520" y="930" width="80" height="80" as="geometry" />
        </mxCell>
        <mxCell id="FgGzrAZ7h3xGlEs_a5b2-16" style="edgeStyle=orthogonalEdgeStyle;rounded=0;orthogonalLoop=1;jettySize=auto;html=1;" parent="1" source="FgGzrAZ7h3xGlEs_a5b2-14" target="FgGzrAZ7h3xGlEs_a5b2-4" edge="1">
          <mxGeometry relative="1" as="geometry" />
        </mxCell>
        <mxCell id="FgGzrAZ7h3xGlEs_a5b2-14" value="counter = 0" style="whiteSpace=wrap;html=1;" parent="1" vertex="1">
          <mxGeometry x="500" y="640" width="120" height="60" as="geometry" />
        </mxCell>
        <mxCell id="u1FyatXsR4D14z9bLsPo-5" value="" style="edgeStyle=orthogonalEdgeStyle;rounded=0;orthogonalLoop=1;jettySize=auto;html=1;" edge="1" parent="1" source="FgGzrAZ7h3xGlEs_a5b2-21" target="u1FyatXsR4D14z9bLsPo-4">
          <mxGeometry relative="1" as="geometry" />
        </mxCell>
        <mxCell id="FgGzrAZ7h3xGlEs_a5b2-21" value="read x" style="shape=parallelogram;perimeter=parallelogramPerimeter;whiteSpace=wrap;html=1;fixedSize=1;" parent="1" vertex="1">
          <mxGeometry x="500" y="1160" width="120" height="60" as="geometry" />
        </mxCell>
        <mxCell id="u1FyatXsR4D14z9bLsPo-19" value="" style="edgeStyle=orthogonalEdgeStyle;rounded=0;orthogonalLoop=1;jettySize=auto;html=1;" edge="1" parent="1" source="FgGzrAZ7h3xGlEs_a5b2-25" target="u1FyatXsR4D14z9bLsPo-18">
          <mxGeometry relative="1" as="geometry" />
        </mxCell>
        <mxCell id="FgGzrAZ7h3xGlEs_a5b2-25" value="" style="shape=waypoint;sketch=0;size=6;pointerEvents=1;points=[];fillColor=default;resizable=0;rotatable=0;perimeter=centerPerimeter;snapToPoint=1;" parent="1" vertex="1">
          <mxGeometry x="710" y="960" width="20" height="20" as="geometry" />
        </mxCell>
        <mxCell id="u1FyatXsR4D14z9bLsPo-3" value="" style="edgeStyle=orthogonalEdgeStyle;rounded=0;orthogonalLoop=1;jettySize=auto;html=1;" edge="1" parent="1" source="u1FyatXsR4D14z9bLsPo-1" target="FgGzrAZ7h3xGlEs_a5b2-14">
          <mxGeometry relative="1" as="geometry" />
        </mxCell>
        <mxCell id="u1FyatXsR4D14z9bLsPo-1" value="numeri_tot = 0" style="whiteSpace=wrap;html=1;" vertex="1" parent="1">
          <mxGeometry x="500" y="520" width="120" height="60" as="geometry" />
        </mxCell>
        <mxCell id="u1FyatXsR4D14z9bLsPo-7" value="" style="edgeStyle=orthogonalEdgeStyle;rounded=0;orthogonalLoop=1;jettySize=auto;html=1;" edge="1" parent="1" source="u1FyatXsR4D14z9bLsPo-4" target="u1FyatXsR4D14z9bLsPo-6">
          <mxGeometry relative="1" as="geometry" />
        </mxCell>
        <mxCell id="u1FyatXsR4D14z9bLsPo-30" value="True" style="edgeLabel;html=1;align=center;verticalAlign=middle;resizable=0;points=[];" vertex="1" connectable="0" parent="u1FyatXsR4D14z9bLsPo-7">
          <mxGeometry x="-0.1333" y="-3" relative="1" as="geometry">
            <mxPoint as="offset" />
          </mxGeometry>
        </mxCell>
        <mxCell id="u1FyatXsR4D14z9bLsPo-9" value="" style="edgeStyle=orthogonalEdgeStyle;rounded=0;orthogonalLoop=1;jettySize=auto;html=1;" edge="1" parent="1" source="u1FyatXsR4D14z9bLsPo-4" target="u1FyatXsR4D14z9bLsPo-8">
          <mxGeometry relative="1" as="geometry" />
        </mxCell>
        <mxCell id="u1FyatXsR4D14z9bLsPo-31" value="False" style="edgeLabel;html=1;align=center;verticalAlign=middle;resizable=0;points=[];" vertex="1" connectable="0" parent="u1FyatXsR4D14z9bLsPo-9">
          <mxGeometry x="-0.0833" y="4" relative="1" as="geometry">
            <mxPoint as="offset" />
          </mxGeometry>
        </mxCell>
        <mxCell id="u1FyatXsR4D14z9bLsPo-4" value="x % n == 0" style="rhombus;whiteSpace=wrap;html=1;" vertex="1" parent="1">
          <mxGeometry x="520" y="1290" width="80" height="80" as="geometry" />
        </mxCell>
        <mxCell id="u1FyatXsR4D14z9bLsPo-16" value="" style="edgeStyle=orthogonalEdgeStyle;rounded=0;orthogonalLoop=1;jettySize=auto;html=1;" edge="1" parent="1" source="u1FyatXsR4D14z9bLsPo-6" target="u1FyatXsR4D14z9bLsPo-15">
          <mxGeometry relative="1" as="geometry" />
        </mxCell>
        <mxCell id="u1FyatXsR4D14z9bLsPo-6" value="numeri_tot += 1" style="whiteSpace=wrap;html=1;" vertex="1" parent="1">
          <mxGeometry x="660" y="1300" width="120" height="60" as="geometry" />
        </mxCell>
        <mxCell id="u1FyatXsR4D14z9bLsPo-11" value="" style="edgeStyle=orthogonalEdgeStyle;rounded=0;orthogonalLoop=1;jettySize=auto;html=1;" edge="1" parent="1" source="u1FyatXsR4D14z9bLsPo-8" target="u1FyatXsR4D14z9bLsPo-10">
          <mxGeometry relative="1" as="geometry" />
        </mxCell>
        <mxCell id="u1FyatXsR4D14z9bLsPo-8" value="" style="shape=waypoint;sketch=0;size=6;pointerEvents=1;points=[];fillColor=default;resizable=0;rotatable=0;perimeter=centerPerimeter;snapToPoint=1;" vertex="1" parent="1">
          <mxGeometry x="550" y="1480" width="20" height="20" as="geometry" />
        </mxCell>
        <mxCell id="u1FyatXsR4D14z9bLsPo-13" value="" style="edgeStyle=orthogonalEdgeStyle;rounded=0;orthogonalLoop=1;jettySize=auto;html=1;" edge="1" parent="1" source="u1FyatXsR4D14z9bLsPo-10" target="u1FyatXsR4D14z9bLsPo-12">
          <mxGeometry relative="1" as="geometry" />
        </mxCell>
        <mxCell id="u1FyatXsR4D14z9bLsPo-10" value="" style="shape=waypoint;sketch=0;size=6;pointerEvents=1;points=[];fillColor=default;resizable=0;rotatable=0;perimeter=centerPerimeter;snapToPoint=1;" vertex="1" parent="1">
          <mxGeometry x="450" y="1480" width="20" height="20" as="geometry" />
        </mxCell>
        <mxCell id="u1FyatXsR4D14z9bLsPo-64" value="" style="edgeStyle=orthogonalEdgeStyle;rounded=0;orthogonalLoop=1;jettySize=auto;html=1;" edge="1" parent="1" source="u1FyatXsR4D14z9bLsPo-12" target="FgGzrAZ7h3xGlEs_a5b2-4">
          <mxGeometry relative="1" as="geometry" />
        </mxCell>
        <mxCell id="u1FyatXsR4D14z9bLsPo-12" value="" style="shape=waypoint;sketch=0;size=6;pointerEvents=1;points=[];fillColor=default;resizable=0;rotatable=0;perimeter=centerPerimeter;snapToPoint=1;" vertex="1" parent="1">
          <mxGeometry x="380" y="820" width="20" height="20" as="geometry" />
        </mxCell>
        <mxCell id="u1FyatXsR4D14z9bLsPo-15" value="" style="shape=waypoint;sketch=0;size=6;pointerEvents=1;points=[];fillColor=default;resizable=0;rotatable=0;perimeter=centerPerimeter;snapToPoint=1;" vertex="1" parent="1">
          <mxGeometry x="710" y="1470" width="20" height="20" as="geometry" />
        </mxCell>
        <mxCell id="u1FyatXsR4D14z9bLsPo-17" style="edgeStyle=orthogonalEdgeStyle;rounded=0;orthogonalLoop=1;jettySize=auto;html=1;entryX=0.9;entryY=0.4;entryDx=0;entryDy=0;entryPerimeter=0;" edge="1" parent="1" target="u1FyatXsR4D14z9bLsPo-8">
          <mxGeometry relative="1" as="geometry">
            <mxPoint x="720" y="1480" as="sourcePoint" />
          </mxGeometry>
        </mxCell>
        <mxCell id="u1FyatXsR4D14z9bLsPo-21" value="" style="edgeStyle=orthogonalEdgeStyle;rounded=0;orthogonalLoop=1;jettySize=auto;html=1;" edge="1" parent="1" source="u1FyatXsR4D14z9bLsPo-18" target="u1FyatXsR4D14z9bLsPo-20">
          <mxGeometry relative="1" as="geometry" />
        </mxCell>
        <mxCell id="u1FyatXsR4D14z9bLsPo-18" value="write numeri_tot" style="shape=parallelogram;perimeter=parallelogramPerimeter;whiteSpace=wrap;html=1;fixedSize=1;sketch=0;pointerEvents=1;resizable=0;" vertex="1" parent="1">
          <mxGeometry x="660" y="1040" width="120" height="60" as="geometry" />
        </mxCell>
        <mxCell id="u1FyatXsR4D14z9bLsPo-20" value="" style="shape=waypoint;sketch=0;size=6;pointerEvents=1;points=[];fillColor=default;resizable=0;rotatable=0;perimeter=centerPerimeter;snapToPoint=1;" vertex="1" parent="1">
          <mxGeometry x="810" y="1050" width="20" height="20" as="geometry" />
        </mxCell>
        <mxCell id="u1FyatXsR4D14z9bLsPo-22" style="edgeStyle=orthogonalEdgeStyle;rounded=0;orthogonalLoop=1;jettySize=auto;html=1;entryX=0.8;entryY=1.2;entryDx=0;entryDy=0;entryPerimeter=0;" edge="1" parent="1" source="u1FyatXsR4D14z9bLsPo-20" target="FgGzrAZ7h3xGlEs_a5b2-8">
          <mxGeometry relative="1" as="geometry" />
        </mxCell>
        <mxCell id="u1FyatXsR4D14z9bLsPo-25" value="" style="edgeStyle=orthogonalEdgeStyle;rounded=0;orthogonalLoop=1;jettySize=auto;html=1;" edge="1" parent="1" source="u1FyatXsR4D14z9bLsPo-23" target="FgGzrAZ7h3xGlEs_a5b2-21">
          <mxGeometry relative="1" as="geometry" />
        </mxCell>
        <mxCell id="u1FyatXsR4D14z9bLsPo-23" value="counter += 1" style="whiteSpace=wrap;html=1;" vertex="1" parent="1">
          <mxGeometry x="500" y="1050" width="120" height="60" as="geometry" />
        </mxCell>
        <mxCell id="u1FyatXsR4D14z9bLsPo-34" value="" style="edgeStyle=orthogonalEdgeStyle;rounded=0;orthogonalLoop=1;jettySize=auto;html=1;" edge="1" parent="1" source="u1FyatXsR4D14z9bLsPo-32" target="u1FyatXsR4D14z9bLsPo-33">
          <mxGeometry relative="1" as="geometry" />
        </mxCell>
        <mxCell id="u1FyatXsR4D14z9bLsPo-32" value="start" style="ellipse;whiteSpace=wrap;html=1;" vertex="1" parent="1">
          <mxGeometry x="580" y="1680" width="80" height="80" as="geometry" />
        </mxCell>
        <mxCell id="u1FyatXsR4D14z9bLsPo-36" value="" style="edgeStyle=orthogonalEdgeStyle;rounded=0;orthogonalLoop=1;jettySize=auto;html=1;" edge="1" parent="1" source="u1FyatXsR4D14z9bLsPo-33" target="u1FyatXsR4D14z9bLsPo-35">
          <mxGeometry relative="1" as="geometry" />
        </mxCell>
        <mxCell id="u1FyatXsR4D14z9bLsPo-33" value="read età" style="shape=parallelogram;perimeter=parallelogramPerimeter;whiteSpace=wrap;html=1;fixedSize=1;" vertex="1" parent="1">
          <mxGeometry x="560" y="1850" width="120" height="60" as="geometry" />
        </mxCell>
        <mxCell id="u1FyatXsR4D14z9bLsPo-38" value="" style="edgeStyle=orthogonalEdgeStyle;rounded=0;orthogonalLoop=1;jettySize=auto;html=1;" edge="1" parent="1" source="u1FyatXsR4D14z9bLsPo-35" target="u1FyatXsR4D14z9bLsPo-37">
          <mxGeometry relative="1" as="geometry" />
        </mxCell>
        <mxCell id="u1FyatXsR4D14z9bLsPo-62" value="True" style="edgeLabel;html=1;align=center;verticalAlign=middle;resizable=0;points=[];" vertex="1" connectable="0" parent="u1FyatXsR4D14z9bLsPo-38">
          <mxGeometry x="0.0483" y="2" relative="1" as="geometry">
            <mxPoint as="offset" />
          </mxGeometry>
        </mxCell>
        <mxCell id="u1FyatXsR4D14z9bLsPo-40" value="" style="edgeStyle=orthogonalEdgeStyle;rounded=0;orthogonalLoop=1;jettySize=auto;html=1;" edge="1" parent="1" source="u1FyatXsR4D14z9bLsPo-35" target="u1FyatXsR4D14z9bLsPo-39">
          <mxGeometry relative="1" as="geometry" />
        </mxCell>
        <mxCell id="u1FyatXsR4D14z9bLsPo-63" value="False" style="edgeLabel;html=1;align=center;verticalAlign=middle;resizable=0;points=[];" vertex="1" connectable="0" parent="u1FyatXsR4D14z9bLsPo-40">
          <mxGeometry x="-0.325" y="2" relative="1" as="geometry">
            <mxPoint as="offset" />
          </mxGeometry>
        </mxCell>
        <mxCell id="u1FyatXsR4D14z9bLsPo-35" value="18 &amp;lt;= età &amp;lt;= 65" style="rhombus;whiteSpace=wrap;html=1;" vertex="1" parent="1">
          <mxGeometry x="525" y="1970" width="190" height="80" as="geometry" />
        </mxCell>
        <mxCell id="u1FyatXsR4D14z9bLsPo-48" value="" style="edgeStyle=orthogonalEdgeStyle;rounded=0;orthogonalLoop=1;jettySize=auto;html=1;" edge="1" parent="1" source="u1FyatXsR4D14z9bLsPo-37" target="u1FyatXsR4D14z9bLsPo-47">
          <mxGeometry relative="1" as="geometry" />
        </mxCell>
        <mxCell id="u1FyatXsR4D14z9bLsPo-37" value="write puoi partecipare all’attività" style="shape=parallelogram;perimeter=parallelogramPerimeter;whiteSpace=wrap;html=1;fixedSize=1;" vertex="1" parent="1">
          <mxGeometry x="450" y="2140" width="230" height="60" as="geometry" />
        </mxCell>
        <mxCell id="u1FyatXsR4D14z9bLsPo-42" value="" style="edgeStyle=orthogonalEdgeStyle;rounded=0;orthogonalLoop=1;jettySize=auto;html=1;" edge="1" parent="1" source="u1FyatXsR4D14z9bLsPo-39" target="u1FyatXsR4D14z9bLsPo-41">
          <mxGeometry relative="1" as="geometry" />
        </mxCell>
        <mxCell id="u1FyatXsR4D14z9bLsPo-65" value="True" style="edgeLabel;html=1;align=center;verticalAlign=middle;resizable=0;points=[];" vertex="1" connectable="0" parent="u1FyatXsR4D14z9bLsPo-42">
          <mxGeometry x="-0.2" y="-4" relative="1" as="geometry">
            <mxPoint as="offset" />
          </mxGeometry>
        </mxCell>
        <mxCell id="u1FyatXsR4D14z9bLsPo-44" value="" style="edgeStyle=orthogonalEdgeStyle;rounded=0;orthogonalLoop=1;jettySize=auto;html=1;" edge="1" parent="1" source="u1FyatXsR4D14z9bLsPo-39" target="u1FyatXsR4D14z9bLsPo-43">
          <mxGeometry relative="1" as="geometry" />
        </mxCell>
        <mxCell id="u1FyatXsR4D14z9bLsPo-66" value="False" style="edgeLabel;html=1;align=center;verticalAlign=middle;resizable=0;points=[];" vertex="1" connectable="0" parent="u1FyatXsR4D14z9bLsPo-44">
          <mxGeometry x="-0.025" y="1" relative="1" as="geometry">
            <mxPoint as="offset" />
          </mxGeometry>
        </mxCell>
        <mxCell id="u1FyatXsR4D14z9bLsPo-39" value="età &amp;lt; 18" style="rhombus;whiteSpace=wrap;html=1;" vertex="1" parent="1">
          <mxGeometry x="795" y="1970" width="190" height="80" as="geometry" />
        </mxCell>
        <mxCell id="u1FyatXsR4D14z9bLsPo-50" value="" style="edgeStyle=orthogonalEdgeStyle;rounded=0;orthogonalLoop=1;jettySize=auto;html=1;" edge="1" parent="1" source="u1FyatXsR4D14z9bLsPo-41" target="u1FyatXsR4D14z9bLsPo-49">
          <mxGeometry relative="1" as="geometry" />
        </mxCell>
        <mxCell id="u1FyatXsR4D14z9bLsPo-41" value="write non hai raggiunto l&#39;età minima consentita" style="shape=parallelogram;perimeter=parallelogramPerimeter;whiteSpace=wrap;html=1;fixedSize=1;" vertex="1" parent="1">
          <mxGeometry x="730" y="2140" width="320" height="60" as="geometry" />
        </mxCell>
        <mxCell id="u1FyatXsR4D14z9bLsPo-46" value="" style="edgeStyle=orthogonalEdgeStyle;rounded=0;orthogonalLoop=1;jettySize=auto;html=1;" edge="1" parent="1" source="u1FyatXsR4D14z9bLsPo-43" target="u1FyatXsR4D14z9bLsPo-45">
          <mxGeometry relative="1" as="geometry" />
        </mxCell>
        <mxCell id="u1FyatXsR4D14z9bLsPo-67" value="True" style="edgeLabel;html=1;align=center;verticalAlign=middle;resizable=0;points=[];" vertex="1" connectable="0" parent="u1FyatXsR4D14z9bLsPo-46">
          <mxGeometry x="-0.125" y="1" relative="1" as="geometry">
            <mxPoint as="offset" />
          </mxGeometry>
        </mxCell>
        <mxCell id="u1FyatXsR4D14z9bLsPo-69" value="" style="edgeStyle=orthogonalEdgeStyle;rounded=0;orthogonalLoop=1;jettySize=auto;html=1;" edge="1" parent="1" source="u1FyatXsR4D14z9bLsPo-43" target="u1FyatXsR4D14z9bLsPo-68">
          <mxGeometry relative="1" as="geometry" />
        </mxCell>
        <mxCell id="u1FyatXsR4D14z9bLsPo-43" value="età &amp;gt; 65" style="rhombus;whiteSpace=wrap;html=1;" vertex="1" parent="1">
          <mxGeometry x="1065" y="1970" width="190" height="80" as="geometry" />
        </mxCell>
        <mxCell id="u1FyatXsR4D14z9bLsPo-52" value="" style="edgeStyle=orthogonalEdgeStyle;rounded=0;orthogonalLoop=1;jettySize=auto;html=1;" edge="1" parent="1" source="u1FyatXsR4D14z9bLsPo-45" target="u1FyatXsR4D14z9bLsPo-51">
          <mxGeometry relative="1" as="geometry" />
        </mxCell>
        <mxCell id="u1FyatXsR4D14z9bLsPo-45" value="write hai superato l&#39;età massima consentita" style="shape=parallelogram;perimeter=parallelogramPerimeter;whiteSpace=wrap;html=1;fixedSize=1;" vertex="1" parent="1">
          <mxGeometry x="1070" y="2140" width="320" height="60" as="geometry" />
        </mxCell>
        <mxCell id="u1FyatXsR4D14z9bLsPo-54" style="edgeStyle=orthogonalEdgeStyle;rounded=0;orthogonalLoop=1;jettySize=auto;html=1;" edge="1" parent="1" source="u1FyatXsR4D14z9bLsPo-47">
          <mxGeometry relative="1" as="geometry">
            <mxPoint x="890" y="2310" as="targetPoint" />
          </mxGeometry>
        </mxCell>
        <mxCell id="u1FyatXsR4D14z9bLsPo-47" value="" style="shape=waypoint;sketch=0;size=6;pointerEvents=1;points=[];fillColor=default;resizable=0;rotatable=0;perimeter=centerPerimeter;snapToPoint=1;" vertex="1" parent="1">
          <mxGeometry x="555" y="2300" width="20" height="20" as="geometry" />
        </mxCell>
        <mxCell id="u1FyatXsR4D14z9bLsPo-56" value="" style="edgeStyle=orthogonalEdgeStyle;rounded=0;orthogonalLoop=1;jettySize=auto;html=1;" edge="1" parent="1" source="u1FyatXsR4D14z9bLsPo-49" target="u1FyatXsR4D14z9bLsPo-55">
          <mxGeometry relative="1" as="geometry" />
        </mxCell>
        <mxCell id="u1FyatXsR4D14z9bLsPo-49" value="" style="shape=waypoint;sketch=0;size=6;pointerEvents=1;points=[];fillColor=default;resizable=0;rotatable=0;perimeter=centerPerimeter;snapToPoint=1;" vertex="1" parent="1">
          <mxGeometry x="880" y="2300" width="20" height="20" as="geometry" />
        </mxCell>
        <mxCell id="u1FyatXsR4D14z9bLsPo-51" value="" style="shape=waypoint;sketch=0;size=6;pointerEvents=1;points=[];fillColor=default;resizable=0;rotatable=0;perimeter=centerPerimeter;snapToPoint=1;" vertex="1" parent="1">
          <mxGeometry x="1220" y="2300" width="20" height="20" as="geometry" />
        </mxCell>
        <mxCell id="u1FyatXsR4D14z9bLsPo-53" style="edgeStyle=orthogonalEdgeStyle;rounded=0;orthogonalLoop=1;jettySize=auto;html=1;entryX=0.65;entryY=1;entryDx=0;entryDy=0;entryPerimeter=0;" edge="1" parent="1" source="u1FyatXsR4D14z9bLsPo-51" target="u1FyatXsR4D14z9bLsPo-49">
          <mxGeometry relative="1" as="geometry" />
        </mxCell>
        <mxCell id="u1FyatXsR4D14z9bLsPo-55" value="end" style="ellipse;whiteSpace=wrap;html=1;sketch=0;pointerEvents=1;resizable=0;" vertex="1" parent="1">
          <mxGeometry x="850" y="2370" width="80" height="80" as="geometry" />
        </mxCell>
        <mxCell id="u1FyatXsR4D14z9bLsPo-59" value="" style="edgeStyle=orthogonalEdgeStyle;rounded=0;orthogonalLoop=1;jettySize=auto;html=1;" edge="1" parent="1" source="u1FyatXsR4D14z9bLsPo-57" target="u1FyatXsR4D14z9bLsPo-58">
          <mxGeometry relative="1" as="geometry" />
        </mxCell>
        <mxCell id="u1FyatXsR4D14z9bLsPo-57" value="start" style="ellipse;whiteSpace=wrap;html=1;" vertex="1" parent="1">
          <mxGeometry x="880" y="2600" width="80" height="80" as="geometry" />
        </mxCell>
        <mxCell id="u1FyatXsR4D14z9bLsPo-61" value="" style="edgeStyle=orthogonalEdgeStyle;rounded=0;orthogonalLoop=1;jettySize=auto;html=1;" edge="1" parent="1" source="u1FyatXsR4D14z9bLsPo-58" target="u1FyatXsR4D14z9bLsPo-60">
          <mxGeometry relative="1" as="geometry" />
        </mxCell>
        <mxCell id="u1FyatXsR4D14z9bLsPo-58" value="read x" style="shape=parallelogram;perimeter=parallelogramPerimeter;whiteSpace=wrap;html=1;fixedSize=1;" vertex="1" parent="1">
          <mxGeometry x="860" y="2770" width="120" height="60" as="geometry" />
        </mxCell>
        <mxCell id="u1FyatXsR4D14z9bLsPo-60" value="" style="rhombus;whiteSpace=wrap;html=1;" vertex="1" parent="1">
          <mxGeometry x="880" y="2900" width="80" height="80" as="geometry" />
        </mxCell>
        <mxCell id="u1FyatXsR4D14z9bLsPo-71" value="" style="edgeStyle=orthogonalEdgeStyle;rounded=0;orthogonalLoop=1;jettySize=auto;html=1;" edge="1" parent="1" source="u1FyatXsR4D14z9bLsPo-68" target="u1FyatXsR4D14z9bLsPo-70">
          <mxGeometry relative="1" as="geometry" />
        </mxCell>
        <mxCell id="u1FyatXsR4D14z9bLsPo-68" value="" style="shape=waypoint;sketch=0;size=6;pointerEvents=1;points=[];fillColor=default;resizable=0;rotatable=0;perimeter=centerPerimeter;snapToPoint=1;" vertex="1" parent="1">
          <mxGeometry x="1420" y="2000" width="20" height="20" as="geometry" />
        </mxCell>
        <mxCell id="u1FyatXsR4D14z9bLsPo-70" value="" style="shape=waypoint;sketch=0;size=6;pointerEvents=1;points=[];fillColor=default;resizable=0;rotatable=0;perimeter=centerPerimeter;snapToPoint=1;" vertex="1" parent="1">
          <mxGeometry x="1420" y="2300" width="20" height="20" as="geometry" />
        </mxCell>
        <mxCell id="u1FyatXsR4D14z9bLsPo-72" style="edgeStyle=orthogonalEdgeStyle;rounded=0;orthogonalLoop=1;jettySize=auto;html=1;entryX=0.85;entryY=0.55;entryDx=0;entryDy=0;entryPerimeter=0;" edge="1" parent="1" source="u1FyatXsR4D14z9bLsPo-70" target="u1FyatXsR4D14z9bLsPo-51">
          <mxGeometry relative="1" as="geometry" />
        </mxCell>
      </root>
    </mxGraphModel>
  </diagram>
</mxfile>
